<svg width="356" height="73" viewBox="0 0 356 73" fill="none" xmlns="http://www.w3.org/2000/svg">
<style>
path {
    fill: black;
}
rect {
    fill: white;
    fill-opacity: 1;
}
@media (prefers-color-scheme: dark) {
    path {
        fill: white;
    }
    rect {
        fill: black;
        fill-opacity: 0.75;
    }
}
</style>
<rect x="0.824989" width="354.709" height="73" rx="12"/>
<path d="M37.7469 45.6416L37.618 45.6523C37.2312 45.6953 36.866 45.8672 36.5867 46.1357L29.6473 53.0752C28.1756 54.5469 26.2098 55.3525 24.115 55.3525C22.0203 55.3525 20.0545 54.5469 18.5828 53.0752C17.1111 51.6035 16.3055 49.6377 16.3055 47.543C16.3055 45.4482 17.1111 43.4824 18.5828 42.0107L25.9519 34.6416C26.3279 34.2656 26.7361 33.9326 27.1766 33.6426C27.6707 33.3203 28.2078 33.041 28.7664 32.8369C29.282 32.6436 29.8299 32.5146 30.3777 32.4395C30.743 32.3857 31.1189 32.3643 31.4734 32.3643C31.6238 32.3643 31.7742 32.375 31.9676 32.3857C33.8689 32.5039 35.6629 33.3096 36.9949 34.6416C37.8221 35.4687 38.4558 36.4785 38.8318 37.5742C39.1326 38.4336 40.0349 38.917 40.9051 38.6592C40.9158 38.6592 40.9265 38.6484 40.9373 38.6484C40.948 38.6484 40.9588 38.6484 40.9588 38.6377C41.8289 38.3691 42.3338 37.4561 42.0867 36.5859C41.614 34.9102 40.7762 33.5029 39.4441 32.1816C37.7683 30.5059 35.5877 29.4102 33.2566 29.0342C33.0525 29.002 32.8484 28.9697 32.6443 28.9482C32.2469 28.9053 31.8494 28.8838 31.4519 28.8838C31.1726 28.8838 30.8933 28.8945 30.6248 28.916C30.0447 28.959 29.4646 29.0449 28.8846 29.1846C28.7664 29.2061 28.659 29.2383 28.5408 29.2705C27.8211 29.4639 27.1121 29.7217 26.4461 30.0547C25.3396 30.6025 24.3406 31.3115 23.4705 32.1924L16.1014 39.5615C13.9959 41.6992 12.825 44.5352 12.825 47.5644C12.825 50.5937 13.9959 53.4297 16.1228 55.5566C18.2498 57.6728 21.0857 58.8437 24.1043 58.8437C27.1336 58.8437 29.9695 57.6728 32.0965 55.5459L39.1111 48.5312C40.2283 47.4033 39.326 45.4912 37.7469 45.6416Z" fill="white"/>
<path d="M54.2146 17.4541C52.0877 15.3271 49.2517 14.1562 46.2332 14.1562C43.2146 14.1562 40.3679 15.3271 38.241 17.4541L31.3982 24.2969C30.3562 25.3389 31.0115 27.1221 32.4832 27.2402C32.9881 27.2832 33.4822 27.1006 33.8474 26.7461L40.701 19.9141C42.1726 18.4424 44.1385 17.6367 46.2332 17.6367C48.3279 17.6367 50.2937 18.4424 51.7654 19.9141C53.2371 21.3857 54.0427 23.3516 54.0427 25.4463C54.0427 27.541 53.2371 29.5068 51.7654 30.9785L44.3963 38.3477C44.0203 38.7236 43.6121 39.0566 43.1717 39.3467C42.6775 39.6689 42.1404 39.9482 41.5818 40.1523C41.0662 40.3457 40.5183 40.4746 39.9705 40.5498C39.6053 40.6035 39.2293 40.625 38.8748 40.625C38.7244 40.625 38.5633 40.6143 38.3806 40.6035C36.4793 40.4854 34.6853 39.6797 33.3533 38.3477C32.5691 37.5635 31.9783 36.6289 31.5916 35.6084C31.2801 34.7812 30.3992 34.3301 29.5398 34.5557C28.5838 34.8027 28.0252 35.8125 28.326 36.7578C28.8094 38.2617 29.6258 39.54 30.8719 40.7861L30.8933 40.8076C32.7088 42.623 35.1258 43.7725 37.6931 44.041C38.0906 44.084 38.4881 44.1055 38.8855 44.1055C39.1648 44.1055 39.4441 44.0947 39.7234 44.0732C40.4217 44.0195 41.1199 43.9014 41.7967 43.7295C42.5164 43.5361 43.2254 43.2783 43.8914 42.9453C44.9978 42.3975 45.9968 41.6885 46.867 40.8076L54.2361 33.4385C56.3631 31.3115 57.534 28.4756 57.534 25.4463C57.534 22.417 56.3416 19.5811 54.2146 17.4541Z" fill="white"/>
<path d="M75.494 34V30.64H81.382C82.918 30.64 84.262 30.3093 85.414 29.648C86.5873 28.9867 87.494 28.0693 88.134 26.896C88.7953 25.7013 89.126 24.3253 89.126 22.768C89.126 21.232 88.7953 19.8773 88.134 18.704C87.4726 17.5307 86.5553 16.6133 85.382 15.952C84.23 15.2907 82.8966 14.96 81.382 14.96H75.494V11.6H81.478C83.0993 11.6 84.6033 11.888 85.99 12.464C87.3766 13.0187 88.582 13.808 89.606 14.832C90.6513 15.8347 91.462 17.0187 92.038 18.384C92.614 19.728 92.902 21.2 92.902 22.8C92.902 24.3787 92.614 25.8507 92.038 27.216C91.462 28.5813 90.662 29.776 89.638 30.8C88.614 31.8027 87.4086 32.592 86.022 33.168C84.6353 33.7227 83.142 34 81.542 34H75.494ZM72.966 34V11.6H76.646V34H72.966ZM102.477 34.32C101.176 34.32 100.013 34.032 98.9895 33.456C97.9868 32.88 97.1975 32.0907 96.6215 31.088C96.0668 30.064 95.7895 28.8907 95.7895 27.568V18.64H99.3095V27.408C99.3095 28.1547 99.4268 28.7947 99.6615 29.328C99.9175 29.84 100.28 30.2347 100.749 30.512C101.24 30.7893 101.816 30.928 102.477 30.928C103.501 30.928 104.28 30.6293 104.813 30.032C105.368 29.4133 105.645 28.5387 105.645 27.408V18.64H109.165V27.568C109.165 28.912 108.877 30.096 108.301 31.12C107.747 32.1227 106.968 32.912 105.965 33.488C104.963 34.0427 103.8 34.32 102.477 34.32ZM120.929 34.32C119.755 34.32 118.71 34.0747 117.793 33.584C116.875 33.072 116.15 32.3787 115.617 31.504C115.105 30.6293 114.849 29.6373 114.849 28.528V24.112C114.849 23.0027 115.115 22.0107 115.649 21.136C116.182 20.2613 116.907 19.5787 117.825 19.088C118.742 18.576 119.777 18.32 120.929 18.32C122.315 18.32 123.563 18.6827 124.673 19.408C125.803 20.112 126.689 21.072 127.329 22.288C127.99 23.4827 128.321 24.8373 128.321 26.352C128.321 27.8453 127.99 29.2 127.329 30.416C126.689 31.6107 125.803 32.56 124.673 33.264C123.563 33.968 122.315 34.32 120.929 34.32ZM120.353 30.992C121.206 30.992 121.953 30.8 122.593 30.416C123.254 30.0107 123.766 29.456 124.129 28.752C124.513 28.048 124.705 27.2373 124.705 26.32C124.705 25.4027 124.513 24.592 124.129 23.888C123.766 23.184 123.254 22.64 122.593 22.256C121.953 21.8507 121.206 21.648 120.353 21.648C119.499 21.648 118.742 21.8507 118.081 22.256C117.419 22.64 116.907 23.184 116.545 23.888C116.182 24.592 116.001 25.4027 116.001 26.32C116.001 27.2373 116.182 28.048 116.545 28.752C116.907 29.456 117.419 30.0107 118.081 30.416C118.742 30.8 119.499 30.992 120.353 30.992ZM112.705 34V10.96H116.225V22.416L115.617 26.128L116.225 29.872V34H112.705ZM129.615 32.08L138.191 20.56H142.319L133.743 32.08H129.615ZM129.615 34V32.08L132.815 30.8H142.127V34H129.615ZM130.191 21.84V18.64H142.319V20.56L139.119 21.84H130.191ZM152.091 34.32C150.555 34.32 149.168 33.9787 147.931 33.296C146.715 32.592 145.744 31.632 145.019 30.416C144.315 29.2 143.963 27.8347 143.963 26.32C143.963 24.8053 144.315 23.4507 145.019 22.256C145.723 21.04 146.672 20.08 147.867 19.376C149.083 18.672 150.427 18.32 151.899 18.32C153.328 18.32 154.587 18.6507 155.675 19.312C156.784 19.9733 157.648 20.88 158.267 22.032C158.907 23.184 159.227 24.496 159.227 25.968C159.227 26.224 159.205 26.4907 159.163 26.768C159.141 27.024 159.099 27.312 159.035 27.632H146.427V24.752H157.211L155.899 25.904C155.856 24.9653 155.675 24.176 155.355 23.536C155.035 22.896 154.576 22.4053 153.979 22.064C153.403 21.7227 152.688 21.552 151.835 21.552C150.939 21.552 150.16 21.744 149.499 22.128C148.837 22.512 148.325 23.056 147.963 23.76C147.6 24.4427 147.419 25.264 147.419 26.224C147.419 27.184 147.611 28.0267 147.995 28.752C148.379 29.4773 148.923 30.0427 149.627 30.448C150.331 30.832 151.141 31.024 152.059 31.024C152.848 31.024 153.573 30.8853 154.235 30.608C154.917 30.3307 155.493 29.9253 155.963 29.392L158.203 31.664C157.456 32.5387 156.549 33.2 155.483 33.648C154.416 34.096 153.285 34.32 152.091 34.32ZM162.048 34V18.64H165.568V34H162.048ZM165.568 25.456L164.352 24.848C164.352 22.9067 164.779 21.3387 165.632 20.144C166.507 18.928 167.819 18.32 169.568 18.32C170.336 18.32 171.03 18.4587 171.648 18.736C172.267 19.0133 172.843 19.4613 173.376 20.08L171.072 22.448C170.795 22.1493 170.486 21.936 170.144 21.808C169.803 21.68 169.408 21.616 168.96 21.616C167.979 21.616 167.168 21.9253 166.528 22.544C165.888 23.1627 165.568 24.1333 165.568 25.456ZM175.83 34.32C175.148 34.32 174.582 34.096 174.134 33.648C173.708 33.1787 173.494 32.6133 173.494 31.952C173.494 31.2693 173.708 30.704 174.134 30.256C174.582 29.808 175.148 29.584 175.83 29.584C176.513 29.584 177.068 29.808 177.494 30.256C177.942 30.704 178.166 31.2693 178.166 31.952C178.166 32.6133 177.942 33.1787 177.494 33.648C177.068 34.096 176.513 34.32 175.83 34.32ZM186.913 34L179.553 11.6H183.169L188.705 28.848H187.745L193.153 11.6H195.713L201.121 28.848H200.161L205.697 11.6H209.313L201.953 34H199.393L193.953 16.784H194.913L189.473 34H186.913ZM222.639 34V25.136C222.639 24.112 222.308 23.2693 221.647 22.608C221.007 21.9467 220.175 21.616 219.151 21.616C218.468 21.616 217.86 21.7653 217.327 22.064C216.794 22.3627 216.378 22.7787 216.079 23.312C215.78 23.8453 215.631 24.4533 215.631 25.136L214.255 24.368C214.255 23.1947 214.511 22.16 215.023 21.264C215.535 20.3467 216.239 19.632 217.135 19.12C218.052 18.5867 219.076 18.32 220.207 18.32C221.359 18.32 222.383 18.576 223.279 19.088C224.175 19.6 224.879 20.3147 225.391 21.232C225.903 22.128 226.159 23.1733 226.159 24.368V34H222.639ZM212.111 34V10.96H215.631V34H212.111ZM236.168 34.32C234.781 34.32 233.523 33.968 232.392 33.264C231.283 32.56 230.397 31.6107 229.736 30.416C229.096 29.2 228.776 27.8453 228.776 26.352C228.776 24.8373 229.096 23.4827 229.736 22.288C230.397 21.072 231.283 20.112 232.392 19.408C233.523 18.6827 234.781 18.32 236.168 18.32C237.341 18.32 238.376 18.576 239.272 19.088C240.189 19.5787 240.915 20.2613 241.448 21.136C241.981 22.0107 242.248 23.0027 242.248 24.112V28.528C242.248 29.6373 241.981 30.6293 241.448 31.504C240.936 32.3787 240.221 33.072 239.304 33.584C238.387 34.0747 237.341 34.32 236.168 34.32ZM236.744 30.992C238.045 30.992 239.091 30.5547 239.88 29.68C240.691 28.8053 241.096 27.6853 241.096 26.32C241.096 25.4027 240.915 24.592 240.552 23.888C240.189 23.184 239.677 22.64 239.016 22.256C238.376 21.8507 237.619 21.648 236.744 21.648C235.891 21.648 235.133 21.8507 234.472 22.256C233.832 22.64 233.32 23.184 232.936 23.888C232.573 24.592 232.392 25.4027 232.392 26.32C232.392 27.2373 232.573 28.048 232.936 28.752C233.32 29.456 233.832 30.0107 234.472 30.416C235.133 30.8 235.891 30.992 236.744 30.992ZM240.872 34V29.872L241.48 26.128L240.872 22.416V18.64H244.392V34H240.872ZM250.634 34V12.24H254.154V34H250.634ZM246.954 21.84V18.64H257.834V21.84H246.954ZM264.872 34L258.696 18.64H262.344L266.504 29.808L265.416 29.84L269.48 18.64H271.528L275.592 29.84L274.504 29.808L278.664 18.64H282.312L276.136 34H274.088L269.928 23.376H271.08L266.92 34H264.872ZM290.542 40.72C288.921 40.72 287.502 40.4213 286.286 39.824C285.07 39.248 284.089 38.4267 283.342 37.36L285.646 35.056C286.265 35.824 286.969 36.4 287.758 36.784C288.548 37.168 289.497 37.36 290.606 37.36C291.993 37.36 293.092 36.9973 293.902 36.272C294.713 35.568 295.118 34.5973 295.118 33.36V29.584L295.726 26.192L295.118 22.768V18.64H298.638V33.36C298.638 34.832 298.297 36.112 297.614 37.2C296.932 38.3093 295.982 39.1733 294.766 39.792C293.55 40.4107 292.142 40.72 290.542 40.72ZM290.382 33.68C289.017 33.68 287.78 33.3493 286.67 32.688C285.582 32.0053 284.718 31.0773 284.078 29.904C283.46 28.7307 283.15 27.4187 283.15 25.968C283.15 24.5173 283.46 23.216 284.078 22.064C284.718 20.912 285.582 20.0053 286.67 19.344C287.78 18.6613 289.017 18.32 290.382 18.32C291.598 18.32 292.665 18.5653 293.582 19.056C294.5 19.5467 295.214 20.2293 295.726 21.104C296.238 21.9573 296.494 22.96 296.494 24.112V27.888C296.494 29.0187 296.228 30.0213 295.694 30.896C295.182 31.7707 294.468 32.4533 293.55 32.944C292.633 33.4347 291.577 33.68 290.382 33.68ZM291.086 30.352C291.94 30.352 292.686 30.1707 293.326 29.808C293.966 29.4453 294.457 28.944 294.798 28.304C295.161 27.6427 295.342 26.8747 295.342 26C295.342 25.1253 295.161 24.368 294.798 23.728C294.457 23.0667 293.966 22.5547 293.326 22.192C292.686 21.8293 291.94 21.648 291.086 21.648C290.233 21.648 289.476 21.8293 288.814 22.192C288.174 22.5547 287.673 23.0667 287.31 23.728C286.948 24.368 286.766 25.1253 286.766 26C286.766 26.8533 286.948 27.6107 287.31 28.272C287.673 28.9333 288.174 29.4453 288.814 29.808C289.476 30.1707 290.233 30.352 291.086 30.352ZM311.668 34.32C309.983 34.32 308.468 33.936 307.124 33.168C305.78 32.4 304.714 31.3547 303.924 30.032C303.156 28.688 302.772 27.1733 302.772 25.488V11.6H306.452V25.456C306.452 26.544 306.676 27.4933 307.124 28.304C307.594 29.0933 308.223 29.712 309.012 30.16C309.802 30.5867 310.687 30.8 311.668 30.8C312.671 30.8 313.556 30.5867 314.324 30.16C315.092 29.712 315.7 29.0933 316.148 28.304C316.596 27.4933 316.82 26.5547 316.82 25.488V11.6H320.5V25.52C320.5 27.2053 320.116 28.7093 319.348 30.032C318.58 31.3547 317.535 32.4 316.212 33.168C314.89 33.936 313.375 34.32 311.668 34.32ZM324.642 34V18.64H328.162V34H324.642ZM328.162 25.456L326.946 24.848C326.946 22.9067 327.373 21.3387 328.226 20.144C329.101 18.928 330.413 18.32 332.162 18.32C332.93 18.32 333.624 18.4587 334.242 18.736C334.861 19.0133 335.437 19.4613 335.97 20.08L333.666 22.448C333.389 22.1493 333.08 21.936 332.738 21.808C332.397 21.68 332.002 21.616 331.554 21.616C330.573 21.616 329.762 21.9253 329.122 22.544C328.482 23.1627 328.162 24.1333 328.162 25.456ZM337.673 34V10.96H341.193V34H337.673Z" fill="white"/>
<path d="M73.434 55.6V53.96H77.214C77.734 53.96 78.194 53.8533 78.594 53.64C79.0073 53.4267 79.3273 53.1267 79.554 52.74C79.794 52.3533 79.914 51.8933 79.914 51.36C79.914 50.8267 79.794 50.3667 79.554 49.98C79.3273 49.5933 79.0073 49.2933 78.594 49.08C78.194 48.8667 77.734 48.76 77.214 48.76H73.434V47.12H77.334C78.1873 47.12 78.9473 47.2933 79.614 47.64C80.294 47.9867 80.8273 48.48 81.214 49.12C81.614 49.7467 81.814 50.4933 81.814 51.36C81.814 52.2133 81.614 52.96 81.214 53.6C80.8273 54.2267 80.294 54.72 79.614 55.08C78.9473 55.4267 78.1873 55.6 77.334 55.6H73.434ZM72.174 61V47.12H74.054V61H72.174ZM87.476 61.2C86.6093 61.2 85.8227 60.9867 85.116 60.56C84.4093 60.12 83.8493 59.5267 83.436 58.78C83.036 58.0333 82.836 57.1933 82.836 56.26C82.836 55.3267 83.036 54.4867 83.436 53.74C83.8493 52.9933 84.4027 52.4 85.096 51.96C85.8027 51.52 86.596 51.3 87.476 51.3C88.196 51.3 88.836 51.4533 89.396 51.76C89.9693 52.0533 90.4293 52.4667 90.776 53C91.1227 53.52 91.316 54.1267 91.356 54.82V57.68C91.316 58.36 91.1227 58.9667 90.776 59.5C90.4427 60.0333 89.9893 60.4533 89.416 60.76C88.856 61.0533 88.2093 61.2 87.476 61.2ZM87.776 59.5C88.6693 59.5 89.3893 59.2 89.936 58.6C90.4827 57.9867 90.756 57.2067 90.756 56.26C90.756 55.6067 90.6293 55.04 90.376 54.56C90.136 54.0667 89.7893 53.6867 89.336 53.42C88.8827 53.14 88.356 53 87.756 53C87.156 53 86.6227 53.14 86.156 53.42C85.7027 53.7 85.3427 54.0867 85.076 54.58C84.8227 55.06 84.696 55.6133 84.696 56.24C84.696 56.88 84.8227 57.4467 85.076 57.94C85.3427 58.42 85.7093 58.8 86.176 59.08C86.6427 59.36 87.176 59.5 87.776 59.5ZM90.636 61V58.44L90.976 56.12L90.636 53.82V51.5H92.456V61H90.636ZM95.0766 61V51.5H96.8766V61H95.0766ZM96.8766 55.58L96.1966 55.28C96.1966 54.0667 96.4766 53.1 97.0366 52.38C97.5966 51.66 98.4033 51.3 99.4566 51.3C99.9366 51.3 100.37 51.3867 100.757 51.56C101.143 51.72 101.503 51.9933 101.837 52.38L100.657 53.6C100.457 53.3867 100.237 53.2333 99.9966 53.14C99.7566 53.0467 99.4766 53 99.1566 53C98.4899 53 97.9433 53.2133 97.5166 53.64C97.0899 54.0667 96.8766 54.7133 96.8766 55.58ZM105.909 61.2C105.376 61.2 104.869 61.1333 104.389 61C103.922 60.8533 103.489 60.6533 103.089 60.4C102.689 60.1333 102.342 59.82 102.049 59.46L103.209 58.3C103.556 58.7267 103.956 59.0467 104.409 59.26C104.862 59.46 105.369 59.56 105.929 59.56C106.489 59.56 106.922 59.4667 107.229 59.28C107.536 59.08 107.689 58.8067 107.689 58.46C107.689 58.1133 107.562 57.8467 107.309 57.66C107.069 57.46 106.756 57.3 106.369 57.18C105.982 57.0467 105.569 56.92 105.129 56.8C104.702 56.6667 104.296 56.5 103.909 56.3C103.522 56.1 103.202 55.8267 102.949 55.48C102.709 55.1333 102.589 54.6733 102.589 54.1C102.589 53.5267 102.729 53.0333 103.009 52.62C103.289 52.1933 103.676 51.8667 104.169 51.64C104.676 51.4133 105.282 51.3 105.989 51.3C106.736 51.3 107.396 51.4333 107.969 51.7C108.556 51.9533 109.036 52.34 109.409 52.86L108.249 54.02C107.982 53.6733 107.649 53.4067 107.249 53.22C106.862 53.0333 106.422 52.94 105.929 52.94C105.409 52.94 105.009 53.0333 104.729 53.22C104.462 53.3933 104.329 53.64 104.329 53.96C104.329 54.28 104.449 54.5267 104.689 54.7C104.929 54.8733 105.242 55.02 105.629 55.14C106.029 55.26 106.442 55.3867 106.869 55.52C107.296 55.64 107.702 55.8067 108.089 56.02C108.476 56.2333 108.789 56.52 109.029 56.88C109.282 57.24 109.409 57.7133 109.409 58.3C109.409 59.1933 109.089 59.9 108.449 60.42C107.822 60.94 106.976 61.2 105.909 61.2ZM115.824 61.2C114.878 61.2 114.024 60.9867 113.264 60.56C112.504 60.12 111.904 59.5267 111.464 58.78C111.024 58.0333 110.804 57.1867 110.804 56.24C110.804 55.3067 111.018 54.4667 111.444 53.72C111.884 52.9733 112.471 52.3867 113.204 51.96C113.951 51.52 114.784 51.3 115.704 51.3C116.584 51.3 117.358 51.5 118.024 51.9C118.704 52.3 119.231 52.8533 119.604 53.56C119.991 54.2667 120.184 55.0667 120.184 55.96C120.184 56.0933 120.178 56.24 120.164 56.4C120.151 56.5467 120.124 56.72 120.084 56.92H112.064V55.42H119.124L118.464 56C118.464 55.36 118.351 54.82 118.124 54.38C117.898 53.9267 117.578 53.58 117.164 53.34C116.751 53.0867 116.251 52.96 115.664 52.96C115.051 52.96 114.511 53.0933 114.044 53.36C113.578 53.6267 113.218 54 112.964 54.48C112.711 54.96 112.584 55.5267 112.584 56.18C112.584 56.8467 112.718 57.4333 112.984 57.94C113.251 58.4333 113.631 58.82 114.124 59.1C114.618 59.3667 115.184 59.5 115.824 59.5C116.358 59.5 116.844 59.4067 117.284 59.22C117.738 59.0333 118.124 58.7533 118.444 58.38L119.604 59.56C119.151 60.0933 118.591 60.5 117.924 60.78C117.271 61.06 116.571 61.2 115.824 61.2ZM131.827 61.2C130.8 61.2 129.88 60.9733 129.067 60.52C128.267 60.0533 127.634 59.42 127.167 58.62C126.7 57.8067 126.467 56.8867 126.467 55.86V47.12H128.347V55.82C128.347 56.5533 128.5 57.1867 128.807 57.72C129.114 58.2533 129.527 58.6667 130.047 58.96C130.58 59.2533 131.174 59.4 131.827 59.4C132.507 59.4 133.1 59.2533 133.607 58.96C134.127 58.6667 134.534 58.2533 134.827 57.72C135.134 57.1867 135.287 56.56 135.287 55.84V47.12H137.187V55.88C137.187 56.9067 136.954 57.82 136.487 58.62C136.02 59.42 135.387 60.0533 134.587 60.52C133.787 60.9733 132.867 61.2 131.827 61.2ZM141.539 54.96V53.38H145.299C146.113 53.38 146.739 53.1733 147.179 52.76C147.619 52.3467 147.839 51.7867 147.839 51.08C147.839 50.4133 147.619 49.86 147.179 49.42C146.753 48.98 146.133 48.76 145.319 48.76H141.539V47.12H145.379C146.259 47.12 147.026 47.2933 147.679 47.64C148.333 47.9733 148.833 48.4333 149.179 49.02C149.539 49.6067 149.719 50.28 149.719 51.04C149.719 51.8267 149.539 52.5133 149.179 53.1C148.833 53.6867 148.333 54.1467 147.679 54.48C147.026 54.8 146.259 54.96 145.379 54.96H141.539ZM140.279 61V47.12H142.159V61H140.279ZM148.279 61L143.239 54.78L145.019 54.16L150.659 61H148.279ZM152.604 61V47.12H154.484V61H152.604ZM153.884 61V59.28H161.324V61H153.884ZM171.363 61.2C170.496 61.2 169.709 60.9867 169.003 60.56C168.296 60.12 167.736 59.5267 167.323 58.78C166.923 58.0333 166.723 57.1933 166.723 56.26C166.723 55.3267 166.923 54.4867 167.323 53.74C167.736 52.9933 168.289 52.4 168.983 51.96C169.689 51.52 170.483 51.3 171.363 51.3C172.083 51.3 172.723 51.4533 173.283 51.76C173.856 52.0533 174.316 52.4667 174.663 53C175.009 53.52 175.203 54.1267 175.243 54.82V57.68C175.203 58.36 175.009 58.9667 174.663 59.5C174.329 60.0333 173.876 60.4533 173.303 60.76C172.743 61.0533 172.096 61.2 171.363 61.2ZM171.663 59.5C172.556 59.5 173.276 59.2 173.823 58.6C174.369 57.9867 174.643 57.2067 174.643 56.26C174.643 55.6067 174.516 55.04 174.263 54.56C174.023 54.0667 173.676 53.6867 173.223 53.42C172.769 53.14 172.243 53 171.643 53C171.043 53 170.509 53.14 170.043 53.42C169.589 53.7 169.229 54.0867 168.963 54.58C168.709 55.06 168.583 55.6133 168.583 56.24C168.583 56.88 168.709 57.4467 168.963 57.94C169.229 58.42 169.596 58.8 170.063 59.08C170.529 59.36 171.063 59.5 171.663 59.5ZM174.523 61V58.44L174.863 56.12L174.523 53.82V51.5H176.343V61H174.523ZM181.983 61.2C181.45 61.2 180.943 61.1333 180.463 61C179.997 60.8533 179.563 60.6533 179.163 60.4C178.763 60.1333 178.417 59.82 178.123 59.46L179.283 58.3C179.63 58.7267 180.03 59.0467 180.483 59.26C180.937 59.46 181.443 59.56 182.003 59.56C182.563 59.56 182.997 59.4667 183.303 59.28C183.61 59.08 183.763 58.8067 183.763 58.46C183.763 58.1133 183.637 57.8467 183.383 57.66C183.143 57.46 182.83 57.3 182.443 57.18C182.057 57.0467 181.643 56.92 181.203 56.8C180.777 56.6667 180.37 56.5 179.983 56.3C179.597 56.1 179.277 55.8267 179.023 55.48C178.783 55.1333 178.663 54.6733 178.663 54.1C178.663 53.5267 178.803 53.0333 179.083 52.62C179.363 52.1933 179.75 51.8667 180.243 51.64C180.75 51.4133 181.357 51.3 182.063 51.3C182.81 51.3 183.47 51.4333 184.043 51.7C184.63 51.9533 185.11 52.34 185.483 52.86L184.323 54.02C184.057 53.6733 183.723 53.4067 183.323 53.22C182.937 53.0333 182.497 52.94 182.003 52.94C181.483 52.94 181.083 53.0333 180.803 53.22C180.537 53.3933 180.403 53.64 180.403 53.96C180.403 54.28 180.523 54.5267 180.763 54.7C181.003 54.8733 181.317 55.02 181.703 55.14C182.103 55.26 182.517 55.3867 182.943 55.52C183.37 55.64 183.777 55.8067 184.163 56.02C184.55 56.2333 184.863 56.52 185.103 56.88C185.357 57.24 185.483 57.7133 185.483 58.3C185.483 59.1933 185.163 59.9 184.523 60.42C183.897 60.94 183.05 61.2 181.983 61.2ZM194.779 61.08L190.659 51.5H192.659L195.719 59H195.079L198.299 51.5H200.299L195.859 61.08H194.779ZM192.059 64.98L194.859 59.24L195.859 61.08L194.059 64.98H192.059ZM205.745 61.2C204.811 61.2 203.971 60.98 203.225 60.54C202.478 60.1 201.885 59.5067 201.445 58.76C201.005 58 200.785 57.1533 200.785 56.22C200.785 55.3 201.005 54.4733 201.445 53.74C201.885 52.9933 202.478 52.4 203.225 51.96C203.971 51.52 204.811 51.3 205.745 51.3C206.665 51.3 207.498 51.52 208.245 51.96C209.005 52.3867 209.605 52.9733 210.045 53.72C210.485 54.4667 210.705 55.3 210.705 56.22C210.705 57.1533 210.485 58 210.045 58.76C209.605 59.5067 209.005 60.1 208.245 60.54C207.498 60.98 206.665 61.2 205.745 61.2ZM205.745 59.46C206.345 59.46 206.878 59.32 207.345 59.04C207.811 58.76 208.178 58.38 208.445 57.9C208.711 57.4067 208.845 56.8467 208.845 56.22C208.845 55.6067 208.705 55.06 208.425 54.58C208.158 54.1 207.791 53.7267 207.325 53.46C206.871 53.18 206.345 53.04 205.745 53.04C205.145 53.04 204.611 53.18 204.145 53.46C203.678 53.7267 203.311 54.1 203.045 54.58C202.778 55.06 202.645 55.6067 202.645 56.22C202.645 56.8467 202.778 57.4067 203.045 57.9C203.311 58.38 203.678 58.76 204.145 59.04C204.611 59.32 205.145 59.46 205.745 59.46ZM216.553 61.2C215.78 61.2 215.08 61.0267 214.453 60.68C213.84 60.32 213.36 59.8267 213.013 59.2C212.666 58.5733 212.493 57.8467 212.493 57.02V51.5H214.293V56.94C214.293 57.46 214.38 57.9133 214.553 58.3C214.74 58.6733 215.006 58.96 215.353 59.16C215.7 59.36 216.106 59.46 216.573 59.46C217.28 59.46 217.833 59.24 218.233 58.8C218.633 58.3467 218.833 57.7267 218.833 56.94V51.5H220.633V57.02C220.633 57.8467 220.46 58.5733 220.113 59.2C219.766 59.8267 219.286 60.32 218.673 60.68C218.073 61.0267 217.366 61.2 216.553 61.2ZM223.045 61V51.5H224.845V61H223.045ZM224.845 55.58L224.165 55.28C224.165 54.0667 224.445 53.1 225.005 52.38C225.565 51.66 226.372 51.3 227.425 51.3C227.905 51.3 228.339 51.3867 228.725 51.56C229.112 51.72 229.472 51.9933 229.805 52.38L228.625 53.6C228.425 53.3867 228.205 53.2333 227.965 53.14C227.725 53.0467 227.445 53 227.125 53C226.459 53 225.912 53.2133 225.485 53.64C225.059 54.0667 224.845 54.7133 224.845 55.58ZM240.584 61.2C239.864 61.2 239.211 61.0533 238.624 60.76C238.051 60.4533 237.591 60.0333 237.244 59.5C236.898 58.9667 236.704 58.36 236.664 57.68V54.82C236.704 54.1267 236.898 53.52 237.244 53C237.604 52.4667 238.071 52.0533 238.644 51.76C239.231 51.4533 239.878 51.3 240.584 51.3C241.451 51.3 242.231 51.52 242.924 51.96C243.631 52.4 244.184 52.9933 244.584 53.74C244.984 54.4867 245.184 55.3267 245.184 56.26C245.184 57.1933 244.984 58.0333 244.584 58.78C244.184 59.5267 243.631 60.12 242.924 60.56C242.231 60.9867 241.451 61.2 240.584 61.2ZM240.284 59.5C240.884 59.5 241.411 59.36 241.864 59.08C242.318 58.8 242.678 58.42 242.944 57.94C243.211 57.4467 243.344 56.88 243.344 56.24C243.344 55.6133 243.211 55.0533 242.944 54.56C242.678 54.0667 242.318 53.6867 241.864 53.42C241.411 53.14 240.891 53 240.304 53C239.704 53 239.178 53.14 238.724 53.42C238.271 53.6867 237.918 54.0667 237.664 54.56C237.411 55.0533 237.284 55.62 237.284 56.26C237.284 56.8867 237.404 57.4467 237.644 57.94C237.898 58.42 238.251 58.8 238.704 59.08C239.171 59.36 239.698 59.5 240.284 59.5ZM235.584 61V46.72H237.384V53.82L237.044 56.12L237.384 58.44V61H235.584ZM247.225 61V51.5H249.025V61H247.225ZM249.025 55.58L248.345 55.28C248.345 54.0667 248.625 53.1 249.185 52.38C249.745 51.66 250.552 51.3 251.605 51.3C252.085 51.3 252.518 51.3867 252.905 51.56C253.292 51.72 253.652 51.9933 253.985 52.38L252.805 53.6C252.605 53.3867 252.385 53.2333 252.145 53.14C251.905 53.0467 251.625 53 251.305 53C250.638 53 250.092 53.2133 249.665 53.64C249.238 54.0667 249.025 54.7133 249.025 55.58ZM259.28 61.2C258.347 61.2 257.507 60.98 256.76 60.54C256.013 60.1 255.42 59.5067 254.98 58.76C254.54 58 254.32 57.1533 254.32 56.22C254.32 55.3 254.54 54.4733 254.98 53.74C255.42 52.9933 256.013 52.4 256.76 51.96C257.507 51.52 258.347 51.3 259.28 51.3C260.2 51.3 261.033 51.52 261.78 51.96C262.54 52.3867 263.14 52.9733 263.58 53.72C264.02 54.4667 264.24 55.3 264.24 56.22C264.24 57.1533 264.02 58 263.58 58.76C263.14 59.5067 262.54 60.1 261.78 60.54C261.033 60.98 260.2 61.2 259.28 61.2ZM259.28 59.46C259.88 59.46 260.413 59.32 260.88 59.04C261.347 58.76 261.713 58.38 261.98 57.9C262.247 57.4067 262.38 56.8467 262.38 56.22C262.38 55.6067 262.24 55.06 261.96 54.58C261.693 54.1 261.327 53.7267 260.86 53.46C260.407 53.18 259.88 53.04 259.28 53.04C258.68 53.04 258.147 53.18 257.68 53.46C257.213 53.7267 256.847 54.1 256.58 54.58C256.313 55.06 256.18 55.6067 256.18 56.22C256.18 56.8467 256.313 57.4067 256.58 57.9C256.847 58.38 257.213 58.76 257.68 59.04C258.147 59.32 258.68 59.46 259.28 59.46ZM268.715 61L264.955 51.5H266.835L269.555 58.9H268.955L271.655 51.5H272.695L275.395 58.9H274.795L277.515 51.5H279.395L275.655 61H274.595L271.855 53.82H272.515L269.755 61H268.715ZM283.78 61.2C283.247 61.2 282.74 61.1333 282.26 61C281.794 60.8533 281.36 60.6533 280.96 60.4C280.56 60.1333 280.214 59.82 279.92 59.46L281.08 58.3C281.427 58.7267 281.827 59.0467 282.28 59.26C282.734 59.46 283.24 59.56 283.8 59.56C284.36 59.56 284.794 59.4667 285.1 59.28C285.407 59.08 285.56 58.8067 285.56 58.46C285.56 58.1133 285.434 57.8467 285.18 57.66C284.94 57.46 284.627 57.3 284.24 57.18C283.854 57.0467 283.44 56.92 283 56.8C282.574 56.6667 282.167 56.5 281.78 56.3C281.394 56.1 281.074 55.8267 280.82 55.48C280.58 55.1333 280.46 54.6733 280.46 54.1C280.46 53.5267 280.6 53.0333 280.88 52.62C281.16 52.1933 281.547 51.8667 282.04 51.64C282.547 51.4133 283.154 51.3 283.86 51.3C284.607 51.3 285.267 51.4333 285.84 51.7C286.427 51.9533 286.907 52.34 287.28 52.86L286.12 54.02C285.854 53.6733 285.52 53.4067 285.12 53.22C284.734 53.0333 284.294 52.94 283.8 52.94C283.28 52.94 282.88 53.0333 282.6 53.22C282.334 53.3933 282.2 53.64 282.2 53.96C282.2 54.28 282.32 54.5267 282.56 54.7C282.8 54.8733 283.114 55.02 283.5 55.14C283.9 55.26 284.314 55.3867 284.74 55.52C285.167 55.64 285.574 55.8067 285.96 56.02C286.347 56.2333 286.66 56.52 286.9 56.88C287.154 57.24 287.28 57.7133 287.28 58.3C287.28 59.1933 286.96 59.9 286.32 60.42C285.694 60.94 284.847 61.2 283.78 61.2ZM293.695 61.2C292.749 61.2 291.895 60.9867 291.135 60.56C290.375 60.12 289.775 59.5267 289.335 58.78C288.895 58.0333 288.675 57.1867 288.675 56.24C288.675 55.3067 288.889 54.4667 289.315 53.72C289.755 52.9733 290.342 52.3867 291.075 51.96C291.822 51.52 292.655 51.3 293.575 51.3C294.455 51.3 295.229 51.5 295.895 51.9C296.575 52.3 297.102 52.8533 297.475 53.56C297.862 54.2667 298.055 55.0667 298.055 55.96C298.055 56.0933 298.049 56.24 298.035 56.4C298.022 56.5467 297.995 56.72 297.955 56.92H289.935V55.42H296.995L296.335 56C296.335 55.36 296.222 54.82 295.995 54.38C295.769 53.9267 295.449 53.58 295.035 53.34C294.622 53.0867 294.122 52.96 293.535 52.96C292.922 52.96 292.382 53.0933 291.915 53.36C291.449 53.6267 291.089 54 290.835 54.48C290.582 54.96 290.455 55.5267 290.455 56.18C290.455 56.8467 290.589 57.4333 290.855 57.94C291.122 58.4333 291.502 58.82 291.995 59.1C292.489 59.3667 293.055 59.5 293.695 59.5C294.229 59.5 294.715 59.4067 295.155 59.22C295.609 59.0333 295.995 58.7533 296.315 58.38L297.475 59.56C297.022 60.0933 296.462 60.5 295.795 60.78C295.142 61.06 294.442 61.2 293.695 61.2ZM300.018 61V51.5H301.818V61H300.018ZM301.818 55.58L301.138 55.28C301.138 54.0667 301.418 53.1 301.978 52.38C302.538 51.66 303.345 51.3 304.398 51.3C304.878 51.3 305.311 51.3867 305.698 51.56C306.085 51.72 306.445 51.9933 306.778 52.38L305.598 53.6C305.398 53.3867 305.178 53.2333 304.938 53.14C304.698 53.0467 304.418 53 304.098 53C303.431 53 302.885 53.2133 302.458 53.64C302.031 54.0667 301.818 54.7133 301.818 55.58Z" fill="white"/>
</svg>